HIERARCHY
ROOT Hips
{
	OFFSET -0.001795 -0.223333 0.028219
	CHANNELS 6 Xposition Yposition Zposition Zrotation Yrotation Xrotation 
	JOINT LeftUpLeg
	{
		OFFSET 0.069520 -0.091406 -0.006815
		CHANNELS 3 Zrotation Yrotation Xrotation
		JOINT LeftLeg
		{
			OFFSET 0.034277 -0.375199 -0.004496
			CHANNELS 3 Zrotation Yrotation Xrotation
			JOINT LeftFoot
			{
				OFFSET -0.013596 -0.397961 -0.043693
				CHANNELS 3 Zrotation Yrotation Xrotation
				JOINT LeftToe
				{
					OFFSET 0.026358 -0.055791 0.119288
					CHANNELS 3 Zrotation Yrotation Xrotation
					End Site
					{
						OFFSET 0.000000 0.000000 0.000000
					}
				}
			}
		}
	}
	JOINT RightUpLeg
	{
		OFFSET -0.067670 -0.090522 -0.004320
		CHANNELS 3 Zrotation Yrotation Xrotation
		JOINT RightLeg
		{
			OFFSET -0.038290 -0.382569 -0.008850
			CHANNELS 3 Zrotation Yrotation Xrotation
			JOINT RightFoot
			{
				OFFSET 0.015774 -0.398415 -0.042312
				CHANNELS 3 Zrotation Yrotation Xrotation
				JOINT RightToe
				{
					OFFSET -0.025372 -0.048144 0.123348
					CHANNELS 3 Zrotation Yrotation Xrotation
					End Site
					{
						OFFSET 0.000000 0.000000 0.000000
					}
				}
			}
		}
	}
	JOINT Spine
	{
		OFFSET -0.002533 0.108963 -0.026696
		CHANNELS 3 Zrotation Yrotation Xrotation
		JOINT Spine1
		{
			OFFSET 0.005487 0.135180 0.001092
			CHANNELS 3 Zrotation Yrotation Xrotation
			JOINT Spine2
			{
				OFFSET 0.001457 0.052922 0.025425
				CHANNELS 3 Zrotation Yrotation Xrotation
				JOINT Neck
				{
					OFFSET -0.002778 0.213870 -0.042857
					CHANNELS 3 Zrotation Yrotation Xrotation
					JOINT Head
					{
						OFFSET 0.005152 0.064970 0.051349
						CHANNELS 3 Zrotation Yrotation Xrotation
						End Site
						{
							OFFSET 0.000000 0.000000 0.000000
						}
					}
				}
				JOINT LeftShoulder
				{
					OFFSET 0.078845 0.121749 -0.034090
					CHANNELS 3 Zrotation Yrotation Xrotation
					JOINT LeftArm
					{
						OFFSET 0.090977 0.030469 -0.008868
						CHANNELS 3 Zrotation Yrotation Xrotation
						JOINT LeftForeArm
						{
							OFFSET 0.259612 -0.012772 -0.027456
							CHANNELS 3 Zrotation Yrotation Xrotation
							JOINT LeftHand
							{
								OFFSET 0.249234 0.008986 -0.001171
								CHANNELS 3 Zrotation Yrotation Xrotation
								End Site
								{
									OFFSET 0.000000 0.000000 0.000000
								}
							}
						}
					}
				}
				JOINT RightShoulder
				{
					OFFSET -0.081759 0.118833 -0.038615
					CHANNELS 3 Zrotation Yrotation Xrotation
					JOINT RightArm
					{
						OFFSET -0.096012 0.032551 -0.009143
						CHANNELS 3 Zrotation Yrotation Xrotation
						JOINT RightForeArm
						{
							OFFSET -0.253742 -0.013329 -0.021401
							CHANNELS 3 Zrotation Yrotation Xrotation
							JOINT RightHand
							{
								OFFSET -0.255298 0.007772 -0.005559
								CHANNELS 3 Zrotation Yrotation Xrotation
								End Site
								{
									OFFSET 0.000000 0.000000 0.000000
								}
							}
						}
					}
				}
			}
		}
	}
}
MOTION
Frames: 10
Frame Time: 0.050000
0.000000 0.860885 0.000000 -0.845070 -2.564346 -2.910086 20.776395 0.830647 -8.096842 -2.283953 0.048677 24.107447 4.972890 11.995384 8.990129 0.000000 0.000000 0.000000 -16.280031 -0.170453 -14.545180 -1.838390 2.075799 27.984285 21.059692 35.113756 14.318157 0.000000 0.000000 0.000000 4.392964 -0.977502 12.820405 -2.924617 1.287664 -25.593208 -1.996538 4.158987 25.383454 8.358830 -1.874451 -32.189827 0.000000 0.000000 0.000000 -27.376893 -9.042901 2.951637 -36.439824 -5.043182 -4.251505 -17.906584 -31.663696 6.309429 0.000000 0.000000 0.000000 30.576464 1.017380 -0.331860 41.386107 6.078579 -4.244513 21.245941 29.828770 6.819895 0.000000 0.000000 0.000000 
-0.001213 0.858243 0.002864 -0.465021 -4.648655 -2.488950 22.459156 1.054879 -7.266824 -5.806116 1.403720 23.798477 5.695445 13.095253 9.097073 0.000000 0.000000 0.000000 -16.265727 -0.063451 -16.508187 -2.424696 2.603409 29.481848 21.946484 36.633862 14.727295 0.000000 0.000000 0.000000 4.246514 -0.860685 11.717392 -3.763339 1.451611 -25.305128 -1.330146 5.422020 25.783400 9.018910 -2.060679 -33.299121 0.000000 0.000000 0.000000 -29.111184 -10.271088 3.791716 -35.454606 -4.999014 -4.157988 -16.522036 -29.386147 5.443183 0.000000 0.000000 0.000000 29.493079 1.876079 0.262472 43.102717 5.830913 -4.460374 19.419331 28.707497 6.076401 0.000000 0.000000 0.000000 
-0.001596 0.855852 0.004307 -0.672537 -2.849594 -2.893603 22.318712 0.788445 -6.310613 -4.874016 0.898876 21.864368 5.314608 12.231242 6.730032 0.000000 0.000000 0.000000 -16.464097 -0.169962 -14.729625 -1.844304 2.164473 28.745364 20.056696 36.534246 11.458602 0.000000 0.000000 0.000000 5.183946 -0.974240 11.748162 -4.110856 1.556088 -25.767571 -2.030396 4.914470 27.274254 9.714802 -1.934179 -36.648530 0.000000 0.000000 0.000000 -28.269230 -11.750306 4.571239 -35.259529 -5.794677 -4.016370 -17.860597 -28.596712 5.595353 0.000000 0.000000 0.000000 32.077536 2.017307 0.672817 40.949642 6.898132 -4.273517 16.646599 28.570762 5.364587 0.000000 0.000000 0.000000 
-0.001278 0.856046 0.005092 -0.754736 -2.980388 -2.359939 23.283822 0.726175 -5.329425 -6.504604 1.338969 19.371884 5.460367 12.403871 6.147742 0.000000 0.000000 0.000000 -17.714272 -0.248803 -14.466217 0.321086 1.282700 27.322944 20.095504 36.758102 11.371652 0.000000 0.000000 0.000000 6.111536 -1.062487 11.595940 -5.367733 1.836371 -26.175600 -2.248229 5.043643 26.699068 10.228171 -1.964729 -37.752056 0.000000 0.000000 0.000000 -27.648614 -11.295170 4.216912 -34.532848 -6.236032 -3.778229 -18.901453 -27.725693 5.655189 0.000000 0.000000 0.000000 32.463678 1.625758 0.402543 41.609939 6.967956 -4.267918 17.174422 27.012111 5.173708 0.000000 0.000000 0.000000 
0.000136 0.856022 0.005067 -0.885554 -2.879589 -2.102491 23.096723 0.676434 -5.186064 -4.714614 0.814357 19.729040 2.878923 7.022467 3.287447 0.000000 0.000000 0.000000 -17.963591 -0.254066 -14.163995 0.804608 1.050959 26.393826 19.827836 36.748557 10.919229 0.000000 0.000000 0.000000 6.289423 -1.081580 11.530799 -5.232020 1.810068 -25.859317 -2.516253 5.551079 26.546268 10.368073 -1.859968 -38.278875 0.000000 0.000000 0.000000 -28.176962 -11.704376 4.233365 -34.049473 -6.125176 -3.667576 -20.382682 -27.948199 6.049702 0.000000 0.000000 0.000000 33.817094 1.646886 0.654685 40.450209 7.617280 -4.081703 16.747109 26.843478 5.047106 0.000000 0.000000 0.000000 
0.002954 0.856266 0.004196 -1.179406 -2.589726 -2.000932 22.943055 0.623250 -5.099911 -2.727290 0.207897 20.595888 0.608371 1.206409 -0.219003 0.000000 0.000000 0.000000 -18.106929 -0.269268 -13.828717 1.284670 0.828253 25.695918 19.864371 36.341539 11.282524 0.000000 0.000000 0.000000 6.568041 -1.130677 11.673363 -5.500015 1.872469 -25.954126 -2.480496 5.106466 26.679309 9.796566 -1.542764 -38.961684 0.000000 0.000000 0.000000 -27.916362 -11.490791 4.205799 -34.607324 -6.407789 -3.695856 -21.195181 -28.284546 6.358387 0.000000 0.000000 0.000000 33.389535 1.900378 0.736185 41.134210 7.220635 -4.213383 17.402286 26.672821 5.161442 0.000000 0.000000 0.000000 
0.006944 0.856988 0.003249 -1.198187 -2.731313 -1.779938 22.486404 0.632235 -5.382383 -0.707811 -0.423699 22.091504 -1.430789 -4.659342 -2.910771 0.000000 0.000000 0.000000 -18.023461 -0.248609 -13.951180 0.745580 0.994240 25.212743 20.057267 36.071956 11.848679 0.000000 0.000000 0.000000 6.579449 -1.130549 11.631837 -5.549229 1.883435 -25.809865 -2.525231 5.227961 26.650524 10.011587 -1.593871 -39.228449 0.000000 0.000000 0.000000 -27.919891 -11.612575 4.272315 -34.646803 -6.550985 -3.657323 -22.090383 -28.975906 6.761801 0.000000 0.000000 0.000000 33.678609 1.971030 0.799897 41.048052 7.276092 -4.201000 17.580074 26.622154 5.195350 0.000000 0.000000 0.000000 
0.011930 0.857501 0.002842 -1.340724 -2.880977 -1.631927 22.413808 0.640601 -5.438865 0.902256 -0.988294 23.990631 -2.839133 -10.490362 -6.555559 0.000000 0.000000 0.000000 -17.767789 -0.216306 -14.102742 0.034159 1.226206 24.968004 20.380932 35.706685 12.717959 0.000000 0.000000 0.000000 6.462053 -1.105068 11.466876 -5.455059 1.855816 -25.927651 -2.486556 5.181430 26.641471 9.987184 -1.608666 -39.184950 0.000000 0.000000 0.000000 -27.785224 -11.239739 4.098097 -34.745746 -6.647130 -3.665807 -23.037487 -29.726533 7.221870 0.000000 0.000000 0.000000 33.555543 1.741105 0.559573 41.234903 6.883773 -4.306718 18.242864 26.435904 5.305598 0.000000 0.000000 0.000000 
0.017518 0.857642 0.003227 -1.638714 -3.443891 -1.777330 22.573912 0.665563 -5.037005 1.323144 -1.113176 24.470631 -3.319903 -12.619857 -7.743501 0.000000 0.000000 0.000000 -17.570572 -0.171707 -14.317015 -0.360485 1.408482 25.165809 21.283763 35.480934 14.481180 0.000000 0.000000 0.000000 6.608811 -1.102017 11.377206 -5.416488 1.834853 -26.228145 -2.534053 5.674992 26.823193 10.512424 -1.839216 -39.090952 0.000000 0.000000 0.000000 -27.237244 -11.146142 3.998537 -34.991812 -6.381996 -3.766475 -24.123002 -30.036967 7.597985 0.000000 0.000000 0.000000 33.573176 1.155711 0.207756 41.326519 6.533757 -4.461368 18.966437 26.009842 5.390943 0.000000 0.000000 0.000000 
0.023572 0.857201 0.003977 -1.750089 -4.153229 -1.790429 22.422954 0.703355 -4.850140 1.239067 -1.033679 24.364066 -3.445079 -12.876964 -7.762636 0.000000 0.000000 0.000000 -17.855066 -0.144335 -14.346198 -0.390927 1.435526 24.723236 21.967484 35.608399 15.565544 0.000000 0.000000 0.000000 6.679612 -1.081814 11.191443 -5.677066 1.886662 -26.330159 -2.563388 6.044007 26.561776 10.875739 -2.061308 -38.659890 0.000000 0.000000 0.000000 -26.758098 -10.969824 3.911115 -34.771115 -6.213502 -3.782287 -25.021944 -30.333128 7.927295 0.000000 0.000000 0.000000 34.059709 0.611063 -0.256779 41.039973 5.780133 -4.644441 19.878764 25.725130 5.530943 0.000000 0.000000 0.000000 
